<svg xmlns="http://www.w3.org/2000/svg" viewBox="0 0 112 107" width="112" height="107">
	<defs>
		<clipPath clipPathUnits="userSpaceOnUse" id="cp1">
			<path d="M0 0L112 0L112 107L0 107Z" />
		</clipPath>
	</defs>
	<style>
		tspan { white-space:pre }
		.shp0 { fill: #00bb9b } 
	</style>
	<g id="Page 1" clip-path="url(#cp1)">
		<path id="Path 1" fill-rule="evenodd" class="shp0" d="M20.28 103.62C20.28 103.53 20.3 103.34 20.34 103.03C20.39 102.73 20.41 102.49 20.41 102.32L26.13 68.65L1.69 44.86C0.56 43.65 0 42.52 0 41.48C0 40.18 1.21 39.18 3.64 38.49L37.44 33.55L52.65 2.87C53.43 1.05 54.51 0.14 55.9 0.14C57.2 0.14 58.33 1.05 59.28 2.87L74.49 33.55L108.29 38.49C110.72 39.18 111.93 40.18 111.93 41.48C111.93 42.61 111.41 43.73 110.37 44.86L85.8 68.65L91.52 102.32C91.52 102.41 91.54 102.6 91.59 102.9C91.63 103.21 91.65 103.45 91.65 103.62C91.65 105.87 90.74 107 88.92 107C87.97 107 87.06 106.7 86.19 106.09L55.9 90.23L25.74 106.09C24.87 106.7 24.01 107 23.14 107C21.23 107 20.28 105.87 20.28 103.62ZM19.24 46.94L37.57 64.88L33.28 90.1L55.9 78.27L78.65 90.1L74.36 64.88L92.69 46.94L67.34 43.3L55.9 20.29L44.59 43.3L19.24 46.94Z" />
	</g>
</svg>