<svg xmlns="http://www.w3.org/2000/svg" viewBox="0 0 91 130" width="91" height="130">
	<defs>
		<clipPath clipPathUnits="userSpaceOnUse" id="cp1">
			<path d="M0 0L91 0L91 130L0 130Z" />
		</clipPath>
	</defs>
	<style>
		tspan { white-space:pre }
		.shp0 { fill: #00bb9b } 
	</style>
	<g id="Page 1" clip-path="url(#cp1)">
		<path id="Path 1" fill-rule="evenodd" class="shp0" d="M27.17 111.27L63.83 111.27L63.83 124.79C57.76 128.43 51.61 130.16 45.37 129.99C39.3 130.07 33.23 128.34 27.17 124.79L27.17 111.27ZM27.95 103.47C27.95 97.49 26.45 91.57 23.46 85.72C20.47 79.87 17.03 74.83 13.13 70.58C9.23 66.51 5.96 61.57 3.31 55.76C0.67 49.95 -0.39 44.02 0.13 37.95C0.73 27.64 4.81 18.71 12.35 11.17C19.8 3.72 30.81 -0.01 45.37 -0.01C60.01 -0.01 71.06 3.72 78.52 11.17C85.8 18.45 89.91 27.38 90.87 37.95C91.47 47.31 88.53 56.37 82.03 65.12L77.87 70.58C75.87 73.09 74.38 75.04 73.38 76.43C72.39 77.82 71.17 79.66 69.74 81.95C68.31 84.25 67.12 86.48 66.17 88.65C64.09 93.33 63.05 98.27 63.05 103.47L27.95 103.47ZM13.91 38.99C13.65 39.16 13.65 40.05 13.91 41.65C14.17 43.26 14.25 44.1 14.17 44.19C14.08 44.36 14.3 45.19 14.82 46.66C15.34 48.13 15.6 48.91 15.6 49C15.6 49.09 15.71 49.39 15.92 49.91C16.14 50.43 16.4 50.95 16.7 51.47C17.01 51.99 17.29 52.51 17.55 53.03L18.07 53.81C18.15 53.98 18.74 54.81 19.82 56.28C20.91 57.75 21.49 58.58 21.58 58.75C21.66 58.92 22.31 59.88 23.53 61.61C24.74 63.34 25.43 64.3 25.61 64.47C33.23 74.87 38.09 84.06 40.17 92.03L50.83 92.03C52.91 83.88 57.76 74.7 65.39 64.47C65.47 64.38 66.04 63.6 67.08 62.13L70.2 57.71C71.24 56.24 71.8 55.41 71.89 55.24C74.4 51.25 75.83 48.57 76.18 47.18C76.96 43.97 77.26 41.24 77.09 38.99C75.7 22 65.13 13.51 45.37 13.51C25.78 13.51 15.29 22 13.91 38.99Z" />
	</g>
</svg>