<svg xmlns="http://www.w3.org/2000/svg" viewBox="0 0 120 107" width="120" height="107">
	<defs>
		<clipPath clipPathUnits="userSpaceOnUse" id="cp1">
			<path d="M0 0L120 0L120 107L0 107Z" />
		</clipPath>
	</defs>
	<style>
		tspan { white-space:pre }
		.shp0 { fill: #00bb9b } 
	</style>
	<g id="Page 1" clip-path="url(#cp1)">
		<path id="Path 1" fill-rule="evenodd" class="shp0" d="M0 33.16C0 22.76 2.86 14.66 8.58 8.85C14.3 3.04 22.32 0.14 32.63 0.14C37.83 0.14 43.2 1.79 48.75 5.08C51.96 6.99 55.77 10.11 60.19 14.44C66.43 8.2 72.84 3.91 79.43 1.57C82.03 0.62 84.85 0.14 87.88 0.14C102.27 0.14 112.15 5.99 117.52 17.69C119.43 21.94 120.38 27.09 120.38 33.16C120.38 40.18 117.95 47.37 113.1 54.74C111.37 57.34 109.59 59.64 107.77 61.63C107.25 62.15 106.79 62.65 106.41 63.12C106.01 63.6 105.73 63.97 105.56 64.23L105.04 64.49L64.09 105.44C62.88 106.48 61.58 107 60.19 107C58.72 107 57.5 106.48 56.55 105.44L15.34 64.36C14.65 63.75 13.78 62.84 12.74 61.63C8.32 56.78 4.85 51.27 2.34 45.12C0.78 41.22 0 37.23 0 33.16ZM10.66 33.16C10.66 38.19 12.65 43.6 16.64 49.41C18.2 51.66 19.59 53.44 20.8 54.74L60.19 94.13L79.95 74.37L99.58 54.74C102.87 51.45 105.65 47.16 107.9 41.87C109.11 38.92 109.72 36.02 109.72 33.16C109.72 18.25 102.44 10.8 87.88 10.8C83.72 10.8 79.04 12.75 73.84 16.65C70.03 19.51 66.86 22.5 64.35 25.62C63.22 27.01 61.84 27.7 60.19 27.7C58.54 27.7 57.2 27.01 56.16 25.62C51.65 19.9 46.15 15.52 39.65 12.49C37.22 11.36 34.88 10.8 32.63 10.8C17.98 10.8 10.66 18.25 10.66 33.16Z" />
	</g>
</svg>